<mxfile host="app.diagrams.net" agent="Mozilla/5.0 (Macintosh; Intel Mac OS X 10_15_7) AppleWebKit/537.36 (KHTML, like Gecko) Chrome/126.0.0.0 Safari/537.36" version="24.7.7">
  <diagram name="第 1 页" id="AqxzG7m0g4bZ2bkXmMBC">
    <mxGraphModel dx="1631" dy="932" grid="1" gridSize="10" guides="1" tooltips="1" connect="1" arrows="1" fold="1" page="1" pageScale="1" pageWidth="1654" pageHeight="1169" math="0" shadow="0">
      <root>
        <mxCell id="0" />
        <mxCell id="1" parent="0" />
        <mxCell id="GNqJ07BhzFK_fjSl9vvM-1" value="" style="rounded=1;whiteSpace=wrap;html=1;fillColor=#d5e8d4;strokeColor=#82b366;opacity=50;" vertex="1" parent="1">
          <mxGeometry x="190" y="270" width="1090" height="120" as="geometry" />
        </mxCell>
        <mxCell id="GNqJ07BhzFK_fjSl9vvM-2" value="" style="rounded=1;whiteSpace=wrap;html=1;fillColor=#FFE599;strokeColor=#82b366;opacity=50;" vertex="1" parent="1">
          <mxGeometry x="190" y="420" width="1090" height="120" as="geometry" />
        </mxCell>
        <mxCell id="GNqJ07BhzFK_fjSl9vvM-3" value="" style="rounded=1;whiteSpace=wrap;html=1;fillColor=#F8CECC;strokeColor=#82b366;opacity=50;" vertex="1" parent="1">
          <mxGeometry x="190" y="570" width="1090" height="120" as="geometry" />
        </mxCell>
        <mxCell id="GNqJ07BhzFK_fjSl9vvM-4" value="" style="rounded=1;whiteSpace=wrap;html=1;fillColor=none;strokeColor=#000000;opacity=50;dashed=1;strokeWidth=5;" vertex="1" parent="1">
          <mxGeometry x="290" y="240" width="170" height="505" as="geometry" />
        </mxCell>
      </root>
    </mxGraphModel>
  </diagram>
</mxfile>
